<?xml version="1.0" encoding="UTF-8"?>
<svg width="700pt" height="700pt" version="1.1" viewBox="0 0 700 700" xmlns="http://www.w3.org/2000/svg">
 <g>
  <path d="m350 542.5c-69.621 0-136.39-27.656-185.62-76.883-49.227-49.23-76.883-116-76.883-185.62s27.656-136.39 76.883-185.62c49.23-49.227 116-76.883 185.62-76.883s136.39 27.656 185.62 76.883c49.227 49.23 76.883 116 76.883 185.62 0 46.078-12.129 91.344-35.168 131.25-23.039 39.906-56.176 73.043-96.082 96.082-39.906 23.039-85.172 35.168-131.25 35.168zm0-490c-60.336 0-118.2 23.969-160.87 66.633-42.664 42.664-66.633 100.53-66.633 160.87s23.969 118.2 66.633 160.87c42.664 42.664 100.53 66.633 160.87 66.633s118.2-23.969 160.87-66.633c42.664-42.664 66.633-100.53 66.633-160.87s-23.969-118.2-66.633-160.87c-42.664-42.664-100.53-66.633-160.87-66.633z"/>
  <path d="m341.77 267.05c-79.438-1.7578-157.82-18.562-231-49.527l14.176-32.023c2.8008 1.2266 282.98 123.73 425.07-37.801l26.25 23.102c-65.098 74.199-152.77 96.25-234.5 96.25z"/>
  <path d="m167.3 439.07-22.75-26.602c10.324-8.9258 256.2-215.43 459.9-86.625l-18.727 29.574c-181.82-114.97-416.15 82.078-418.42 83.652z"/>
  <path d="m355.6 536.02-27.125-22.051c202.12-247.97 1.0469-457.97-7.7031-466.72l25.023-24.5c2.2773 2.4492 231.7 241.32 9.8047 513.27z"/>
 </g>
</svg>
